<svg width="687" height="696" viewBox="0 0 687 696" fill="none" xmlns="http://www.w3.org/2000/svg">
<path d="M816.311 694.447H17.79C9.50577 694.447 2.79004 687.731 2.79004 679.447V15.8145C2.79004 7.53018 9.50577 0.814453 17.79 0.814453H816.311C824.595 0.814453 831.311 7.53017 831.311 15.8144V679.447C831.311 687.731 824.595 694.447 816.311 694.447Z" stroke="black" stroke-opacity="0.17"/>
<path d="M0 80.3721C6.69512 80.3721 556.997 80.3721 831.31 80.3721" stroke="black" stroke-opacity="0.17"/>
<path d="M3.27539 158.453H831.31" stroke="black" stroke-opacity="0.17"/>
<path d="M2.79004 232.025H831.311" stroke="black" stroke-opacity="0.17"/>
<path d="M2.79004 304.123H832.706" stroke="black" stroke-opacity="0.17"/>
<path d="M2.79004 378.708H831.311" stroke="black" stroke-opacity="0.17"/>
<path d="M2.79004 527.876H831.311" stroke="black" stroke-opacity="0.17"/>
<path d="M2.79004 609.918H831.311" stroke="black" stroke-opacity="0.17"/>
<path d="M83.6895 0.814453V694.447" stroke="black" stroke-opacity="0.17"/>
<path d="M2.79004 453.292H831.311" stroke="black" stroke-opacity="0.17"/>
<path d="M253.855 694.447V0.814453" stroke="black" stroke-opacity="0.17"/>
<path d="M334.756 0.814453V304.123V694.447" stroke="black" stroke-opacity="0.17"/>
<path d="M418.444 694.447V0.814453" stroke="black" stroke-opacity="0.17"/>
<path d="M499.345 0.814453V694.447" stroke="black" stroke-opacity="0.17"/>
<path d="M585.823 694.447V0.814453" stroke="black" stroke-opacity="0.17"/>
<path d="M666.723 0.814453V695.69" stroke="black" stroke-opacity="0.17"/>
<path d="M170.168 0.814453V695.01" stroke="black" stroke-opacity="0.17"/>
<path d="M244.123 0H188.239C171.118 0 157.239 13.8792 157.239 31V61.1492C157.239 70.4292 153.082 79.2211 145.909 85.1094L138.308 91.3493C132.764 95.9012 125.812 98.3892 118.638 98.3892H72.3203C55.1995 98.3892 41.3203 112.268 41.3203 129.389V162.552C41.3203 179.673 55.1995 193.552 72.3203 193.552H118.638C125.812 193.552 132.764 196.04 138.308 200.592L143.944 205.219C151.117 211.108 155.274 219.9 155.274 229.18V257.716C155.274 274.837 169.153 288.716 186.274 288.716H228.405C245.526 288.716 259.405 274.837 259.405 257.716V223.907C259.405 207.04 245.92 193.269 229.057 192.914L194.197 192.18C186.828 192.025 179.755 189.249 174.248 184.351L169.602 180.219C162.988 174.337 159.204 165.907 159.204 157.055V135.629C159.204 126.349 163.361 117.557 170.534 111.669L178.135 105.429C183.679 100.877 190.631 98.3892 197.805 98.3892H230.262C236.45 98.3892 242.497 100.241 247.624 103.708L259.52 111.75C268.048 117.516 273.158 127.138 273.158 137.432V163.951C273.158 181.155 287.168 195.069 304.372 194.95L476.996 193.759C493.707 193.644 507.319 180.304 507.771 163.599L508.525 135.748C508.778 126.4 513.236 117.667 520.659 111.979L530.307 104.587C535.561 100.561 541.966 98.3226 548.583 98.1991L594.422 97.3438C611.314 97.0287 624.843 83.2446 624.843 66.3492V34.2259C624.843 17.105 610.964 3.22587 593.843 3.22587H529.541C517.07 3.22587 506.96 13.3358 506.96 25.807V57.9233C506.96 67.2033 502.803 75.9952 495.63 81.8835L486.064 89.7364C480.52 94.2882 473.568 96.7762 466.394 96.7762H314.894C307.014 96.7762 299.43 93.7754 293.684 88.3837L284.912 80.1536C278.666 74.2936 275.122 66.1107 275.122 57.5462V31C275.122 13.8792 261.243 0 244.123 0Z" fill="#E1EFB8"/>
<path d="M313.347 562.402L313.716 523.533C313.878 506.413 300.131 492.448 283.01 492.342L221.02 491.957C204.069 491.852 190.133 505.381 189.734 522.328L188.987 554.074C188.766 563.475 184.29 572.281 176.818 578.015L167.622 585.072C162.137 589.282 155.409 591.545 148.505 591.502L96.9478 591.182C79.8273 591.076 65.8168 604.868 65.6545 621.988L65.2943 659.98C65.132 677.1 78.8794 691.065 95.9999 691.171L157.558 691.554C174.678 691.66 188.689 677.867 188.851 660.747L189.152 628.954C189.253 618.351 194.765 608.518 203.766 602.885L212.186 597.615C217.188 594.485 222.973 592.841 228.865 592.878L282.054 593.208C299.175 593.315 313.185 579.522 313.347 562.402Z" fill="#80A1D4"/>
<path d="M143.702 265.846L144.513 221.29C144.513 212.134 137.09 204.711 127.934 204.711H113.217L51.4092 204.711C34.2884 204.711 20.4092 218.59 20.4092 235.711V272.311C20.4092 289.432 34.2883 303.311 51.4091 303.311H103.718C111.233 303.311 118.492 306.04 124.144 310.992L130.701 316.735C137.421 322.622 141.275 331.121 141.275 340.054V373.528C141.275 390.649 155.154 404.528 172.275 404.528H233.3C250.42 404.528 264.3 390.649 264.3 373.528V325.997C264.3 313.468 254.142 303.311 241.613 303.311H181.714C174.415 303.311 167.349 300.735 161.763 296.037L154.746 290.136C147.59 284.119 143.532 275.194 143.702 265.846Z" fill="#EDEDED"/>
<path d="M180.676 403.456L243.139 404.341C254.453 404.367 263.657 395.216 263.696 383.902L263.713 379.061L263.865 334.956C263.925 317.835 250.093 303.925 232.973 303.886L173.133 303.75C156.013 303.712 142.086 317.559 142.026 334.68L141.922 365.003C141.888 374.777 137.247 383.968 129.398 389.803L122.038 395.275C116.665 399.27 110.146 401.42 103.454 401.405L47.7215 401.279C30.6007 401.24 16.6736 415.088 16.6144 432.208L16.4845 469.767C16.4253 486.888 30.2565 500.798 47.3772 500.837L113.417 500.987C128.9 501.022 141.495 488.499 141.548 473.016L141.661 440.221C141.694 430.661 146.136 421.647 153.698 415.79L161.236 409.952C166.795 405.647 173.65 403.356 180.676 403.456Z" fill="#EDEDED"/>
<path d="M699.092 2.44727H659.515C642.394 2.44727 628.515 16.3264 628.515 33.4472V67.364C628.515 84.4848 614.636 98.364 597.515 98.364H590.588C573.467 98.364 559.588 112.243 559.588 129.364V142.148C559.588 159.268 573.467 173.148 590.588 173.148H613.685C626.455 173.148 636.807 183.5 636.807 196.27C636.807 209.04 647.159 219.392 659.929 219.392H699.092C716.213 219.392 730.092 205.513 730.092 188.392V184.298C730.092 166.284 745.393 152.064 763.359 153.381L799.438 156.027C817.403 157.344 832.705 143.124 832.705 125.11V110.839C832.705 93.7184 818.826 79.8393 801.705 79.8393H763.689C755.302 79.8393 747.273 76.4408 741.434 70.4196L738.837 67.7407C733.228 61.9569 730.092 54.2169 730.092 46.1604V33.4473C730.092 16.3264 716.213 2.44727 699.092 2.44727Z" fill="#EDEDED"/>
<path d="M430.335 454.278V695.283" stroke="white"/>
<path d="M509.449 454.688L511.465 695.284" stroke="white"/>
<path d="M346.687 528.905H597.128" stroke="white"/>
<path d="M347.19 610.87H597.632" stroke="white"/>
<path d="M710.749 231.625H649.113C631.992 231.625 618.113 245.504 618.113 262.625V291.656C618.113 301.4 613.532 310.576 605.745 316.432L597.907 322.326C592.601 326.316 586.154 328.498 579.515 328.549L407.682 329.874C390.655 330.005 376.921 343.846 376.921 360.873V492.801C376.921 509.922 390.8 523.801 407.921 523.801H454.565C462.007 523.801 469.199 526.478 474.831 531.342L485.768 540.791C492.585 546.68 496.503 555.242 496.503 564.25V591.288C496.503 608.409 510.383 622.288 527.503 622.288H587.113C604.233 622.288 618.113 608.409 618.113 591.288V552.562C618.113 535.772 604.501 522.16 587.71 522.16H537.884C530.781 522.16 523.894 519.721 518.374 515.251L507.993 506.844C500.726 500.958 496.503 492.105 496.503 482.753V466.363C496.503 457.011 500.726 448.159 507.993 442.273L518.612 433.673C523.986 429.321 530.662 426.89 537.576 426.768L589.685 425.851C606.591 425.553 620.139 411.764 620.139 394.856V367.236C620.139 358.252 624.037 349.71 630.823 343.822L639.773 336.056C645.411 331.163 652.625 328.47 660.089 328.47H710.749C727.87 328.47 741.749 314.591 741.749 297.47V262.625C741.749 245.504 727.87 231.625 710.749 231.625Z" fill="#CDC7E4"/>
</svg>
